<?xml version="1.0" ?><svg id="object" viewBox="0 0 32 32" xmlns="http://www.w3.org/2000/svg"><title/><path d="M30.92,1.62a1,1,0,0,0-.54-.54A1,1,0,0,0,30,1H26a1,1,0,0,0,0,2h1.59L26.23,4.36,21.74,9.75,16.45,7.11a1,1,0,0,0-1.16.19L9.9,12.74l-4.39-2.6a1,1,0,0,0-1.06,0l-3,2a1,1,0,0,0,1.1,1.66L5,12.18l4.52,2.68a1.06,1.06,0,0,0,.51.14,1,1,0,0,0,.71-.3L16.2,9.22l5.35,2.67a1,1,0,0,0,1.22-.25l4.94-5.93L29,4.41V6a1,1,0,0,0,2,0V2A1,1,0,0,0,30.92,1.62Z"/><path d="M8,21H2a1,1,0,0,0-1,1v3H9V22A1,1,0,0,0,8,21Z"/><path d="M1,30a1,1,0,0,0,1,1H8a1,1,0,0,0,1-1V27H1Z"/><path d="M19,17H13a1,1,0,0,0-1,1v3h8V18A1,1,0,0,0,19,17Z"/><path d="M12,30a1,1,0,0,0,1,1h6a1,1,0,0,0,1-1V27H12Z"/><rect height="2" width="8" x="12" y="23"/><rect height="2" width="8" x="23" y="23"/><rect height="2" width="8" x="23" y="19"/><path d="M23,30a1,1,0,0,0,1,1h6a1,1,0,0,0,1-1V27H23Z"/><path d="M30,13H24a1,1,0,0,0-1,1v3h8V14A1,1,0,0,0,30,13Z"/></svg>